<?xml version="1.0" encoding="UTF-8"?>
<svg xmlns="http://www.w3.org/2000/svg" xmlns:xlink="http://www.w3.org/1999/xlink" width="75px" height="75px" viewBox="0 0 75 74" version="1.1">
<g id="surface1">
<path style=" stroke:none;fill-rule:nonzero;fill:rgb(98.823529%,98.823529%,99.215686%);fill-opacity:1;" d="M 37.394531 -0.0273438 C 37.574219 -0.0273438 37.574219 -0.0273438 37.761719 -0.0273438 C 39.609375 -0.0273438 41.414062 0.03125 43.242188 0.332031 C 43.363281 0.351562 43.480469 0.371094 43.605469 0.390625 C 50.578125 1.53125 57.117188 4.570312 62.386719 9.234375 C 62.472656 9.3125 62.472656 9.3125 62.558594 9.386719 C 63.816406 10.492188 65.046875 11.636719 66.089844 12.941406 C 66.34375 13.257812 66.605469 13.5625 66.871094 13.867188 C 68.707031 16.046875 70.121094 18.503906 71.394531 21.03125 C 71.441406 21.121094 71.484375 21.207031 71.53125 21.296875 C 73.945312 26.066406 75.023438 31.582031 75.027344 36.882812 C 75.027344 37.007812 75.027344 37.007812 75.027344 37.136719 C 75.015625 45.496094 72.167969 53.558594 66.890625 60.089844 C 66.808594 60.191406 66.730469 60.292969 66.644531 60.398438 C 65.09375 62.3125 63.332031 64.148438 61.375 65.652344 C 61.25 65.753906 61.128906 65.855469 61.007812 65.957031 C 55.976562 70.078125 49.769531 72.621094 43.355469 73.667969 C 43.25 73.683594 43.144531 73.703125 43.035156 73.722656 C 39.398438 74.339844 35.273438 74.292969 31.644531 73.667969 C 31.53125 73.648438 31.417969 73.628906 31.300781 73.613281 C 26.503906 72.851562 21.785156 71.121094 17.679688 68.546875 C 17.609375 68.503906 17.539062 68.457031 17.464844 68.414062 C 14.328125 66.433594 11.21875 63.953125 8.90625 61.054688 C 8.65625 60.738281 8.394531 60.4375 8.128906 60.132812 C 6.292969 57.953125 4.878906 55.496094 3.605469 52.96875 C 3.558594 52.878906 3.515625 52.792969 3.46875 52.703125 C 2.054688 49.914062 1.125 46.792969 0.5625 43.730469 C 0.542969 43.632812 0.527344 43.535156 0.507812 43.433594 C 0.390625 42.792969 0.300781 42.152344 0.226562 41.507812 C 0.214844 41.410156 0.203125 41.3125 0.191406 41.210938 C -0.886719 31.71875 1.777344 21.882812 7.769531 14.355469 C 7.828125 14.28125 7.886719 14.207031 7.945312 14.132812 C 9.4375 12.253906 11.089844 10.429688 12.949219 8.902344 C 13.011719 8.851562 13.070312 8.800781 13.132812 8.75 C 18.960938 3.929688 25.898438 1.003906 33.445312 0.109375 C 33.542969 0.101562 33.640625 0.0898438 33.742188 0.0742188 C 34.957031 -0.0429688 36.175781 -0.0273438 37.394531 -0.0273438 Z M 37.394531 -0.0273438 "/>
<path style=" stroke:none;fill-rule:nonzero;fill:rgb(5.882353%,36.470589%,64.705884%);fill-opacity:1;" d="M 44.03125 10.015625 C 44.152344 10.042969 44.273438 10.070312 44.402344 10.101562 C 48.492188 11.070312 52.398438 12.914062 55.628906 15.578125 C 55.726562 15.65625 55.726562 15.65625 55.824219 15.734375 C 57.324219 16.953125 58.722656 18.285156 59.910156 19.808594 C 60.023438 19.945312 60.136719 20.085938 60.25 20.226562 C 64.15625 25.085938 66.164062 31.132812 66.125 37.308594 C 66.125 37.667969 66.125 38.023438 66.125 38.378906 C 66.125 38.609375 66.125 38.835938 66.121094 39.066406 C 66.121094 39.171875 66.121094 39.277344 66.121094 39.386719 C 66.121094 39.484375 66.121094 39.585938 66.121094 39.683594 C 66.121094 39.769531 66.117188 39.859375 66.117188 39.945312 C 66.105469 40.171875 66.105469 40.171875 65.992188 40.503906 C 65.855469 40.503906 65.855469 40.503906 65.71875 40.503906 C 63.527344 40.507812 61.339844 40.511719 59.148438 40.519531 C 58.089844 40.523438 57.03125 40.527344 55.972656 40.527344 C 55.046875 40.527344 54.125 40.53125 53.203125 40.535156 C 52.714844 40.535156 52.226562 40.539062 51.738281 40.535156 C 51.277344 40.535156 50.816406 40.539062 50.355469 40.542969 C 50.1875 40.542969 50.019531 40.542969 49.851562 40.542969 C 49.621094 40.539062 49.386719 40.542969 49.15625 40.546875 C 49.027344 40.546875 48.898438 40.546875 48.765625 40.546875 C 48.316406 40.636719 48.152344 40.828125 47.859375 41.171875 C 47.734375 41.367188 47.613281 41.5625 47.5 41.765625 C 47.335938 42.0625 47.335938 42.0625 47.183594 42.285156 C 47.109375 42.285156 47.035156 42.285156 46.960938 42.285156 C 46.914062 42.167969 46.871094 42.050781 46.828125 41.929688 C 46.554688 41.207031 46.285156 40.484375 45.953125 39.78125 C 45.847656 39.542969 45.757812 39.300781 45.667969 39.054688 C 45.636719 38.976562 45.609375 38.894531 45.578125 38.8125 C 45.519531 38.648438 45.460938 38.488281 45.40625 38.324219 C 45.226562 37.832031 45.226562 37.832031 44.820312 37.5 C 44.589844 37.472656 44.589844 37.472656 44.347656 37.488281 C 44.207031 37.492188 44.066406 37.496094 43.917969 37.5 C 43.890625 37.625 43.890625 37.625 43.859375 37.75 C 43.722656 38.328125 43.570312 38.886719 43.355469 39.441406 C 43.140625 40 43.007812 40.558594 42.878906 41.140625 C 42.769531 41.601562 42.628906 42.046875 42.480469 42.496094 C 42.359375 42.882812 42.253906 43.269531 42.144531 43.660156 C 42.09375 43.847656 42.09375 43.847656 42.039062 44.042969 C 41.96875 44.296875 41.898438 44.554688 41.832031 44.808594 C 41.78125 44.988281 41.78125 44.988281 41.734375 45.167969 C 41.703125 45.273438 41.675781 45.378906 41.644531 45.492188 C 41.554688 45.734375 41.554688 45.734375 41.328125 45.847656 C 41.160156 45.507812 41.1875 45.152344 41.175781 44.78125 C 41.136719 43.980469 41.054688 43.191406 40.949219 42.398438 C 40.746094 40.855469 40.644531 39.304688 40.539062 37.753906 C 40.535156 37.65625 40.527344 37.554688 40.519531 37.453125 C 40.507812 37.269531 40.496094 37.082031 40.484375 36.894531 C 40.449219 36.386719 40.390625 35.890625 40.316406 35.386719 C 40.304688 35.234375 40.292969 35.082031 40.289062 34.929688 C 40.285156 34.847656 40.28125 34.769531 40.277344 34.6875 C 40.269531 34.527344 40.261719 34.367188 40.257812 34.207031 C 40.253906 34.128906 40.25 34.050781 40.246094 33.96875 C 40.242188 33.898438 40.238281 33.828125 40.238281 33.757812 C 40.203125 33.46875 40.203125 33.46875 40.09375 33.085938 C 39.960938 32.574219 39.917969 32.070312 39.886719 31.542969 C 39.878906 31.445312 39.871094 31.347656 39.863281 31.246094 C 39.84375 30.933594 39.820312 30.621094 39.800781 30.308594 C 39.78125 29.996094 39.757812 29.683594 39.738281 29.371094 C 39.722656 29.179688 39.710938 28.984375 39.699219 28.789062 C 39.664062 28.3125 39.613281 27.847656 39.527344 27.375 C 39.511719 27.214844 39.503906 27.054688 39.496094 26.894531 C 39.492188 26.808594 39.488281 26.722656 39.484375 26.636719 C 39.476562 26.460938 39.464844 26.285156 39.457031 26.109375 C 39.433594 25.632812 39.382812 25.175781 39.300781 24.703125 C 39.277344 24.371094 39.261719 24.042969 39.246094 23.710938 C 39.21875 23.105469 39.164062 22.519531 39.078125 21.921875 C 39.054688 21.546875 39.035156 21.167969 39.019531 20.792969 C 38.992188 20.304688 38.933594 19.832031 38.855469 19.351562 C 38.707031 18.449219 38.664062 17.546875 38.613281 16.632812 C 38.601562 16.414062 38.589844 16.195312 38.578125 15.980469 C 38.570312 15.851562 38.5625 15.722656 38.554688 15.589844 C 38.515625 15.25 38.445312 14.996094 38.289062 14.6875 C 37.945312 14.519531 37.652344 14.550781 37.273438 14.578125 C 37.066406 14.6875 37.066406 14.6875 36.9375 14.910156 C 36.898438 15.191406 36.878906 15.449219 36.875 15.730469 C 36.867188 15.90625 36.859375 16.078125 36.851562 16.25 C 36.847656 16.34375 36.84375 16.433594 36.839844 16.527344 C 36.816406 16.980469 36.769531 17.429688 36.726562 17.882812 C 36.714844 17.976562 36.707031 18.070312 36.699219 18.167969 C 36.675781 18.371094 36.65625 18.578125 36.636719 18.785156 C 36.601562 19.117188 36.570312 19.449219 36.535156 19.785156 C 36.503906 20.085938 36.476562 20.390625 36.445312 20.695312 C 36.421875 20.917969 36.402344 21.140625 36.378906 21.359375 C 36.367188 21.496094 36.351562 21.632812 36.339844 21.777344 C 36.324219 21.898438 36.3125 22.019531 36.300781 22.144531 C 36.265625 22.445312 36.210938 22.738281 36.148438 23.035156 C 36.132812 23.1875 36.125 23.34375 36.117188 23.5 C 36.109375 23.628906 36.109375 23.628906 36.105469 23.757812 C 36.101562 23.84375 36.097656 23.933594 36.09375 24.023438 C 36.066406 24.628906 36.011719 25.214844 35.921875 25.816406 C 35.890625 26.238281 35.875 26.664062 35.855469 27.085938 C 35.835938 27.445312 35.816406 27.792969 35.753906 28.144531 C 35.675781 28.628906 35.660156 29.113281 35.640625 29.601562 C 35.617188 30.203125 35.574219 30.785156 35.472656 31.378906 C 35.441406 31.816406 35.421875 32.25 35.40625 32.683594 C 35.371094 33.359375 35.371094 33.359375 35.246094 33.605469 C 35.226562 33.894531 35.210938 34.183594 35.199219 34.476562 C 35.167969 35.058594 35.125 35.625 35.023438 36.199219 C 34.894531 36.933594 34.863281 37.660156 34.835938 38.402344 C 34.816406 38.859375 34.777344 39.277344 34.683594 39.726562 C 34.65625 40.074219 34.644531 40.425781 34.628906 40.777344 C 34.605469 41.363281 34.558594 41.925781 34.460938 42.507812 C 34.441406 42.785156 34.429688 43.058594 34.417969 43.335938 C 34.308594 45.585938 34.027344 47.835938 33.785156 50.074219 C 33.710938 50.039062 33.636719 50 33.558594 49.964844 C 33.222656 48.910156 33.238281 47.707031 33.15625 46.613281 C 33.136719 46.328125 33.113281 46.042969 33.09375 45.757812 C 33.078125 45.582031 33.066406 45.40625 33.054688 45.230469 C 33.058594 44.839844 33.058594 44.839844 32.882812 44.511719 C 32.851562 44.328125 32.824219 44.140625 32.800781 43.953125 C 32.78125 43.78125 32.78125 43.78125 32.757812 43.601562 C 32.742188 43.476562 32.730469 43.351562 32.714844 43.226562 C 32.691406 43.035156 32.691406 43.035156 32.667969 42.84375 C 32.570312 41.992188 32.496094 41.148438 32.457031 40.292969 C 32.441406 39.964844 32.441406 39.964844 32.378906 39.703125 C 32.304688 39.3125 32.273438 38.921875 32.242188 38.523438 C 32.230469 38.351562 32.214844 38.179688 32.199219 38.007812 C 32.179688 37.738281 32.160156 37.46875 32.136719 37.203125 C 32.089844 36.597656 32.039062 35.992188 31.980469 35.386719 C 31.972656 35.300781 31.96875 35.21875 31.960938 35.128906 C 31.9375 34.886719 31.914062 34.644531 31.886719 34.402344 C 31.867188 34.191406 31.867188 34.191406 31.84375 33.976562 C 31.746094 33.558594 31.613281 33.351562 31.304688 33.050781 C 30.964844 32.976562 30.964844 32.976562 30.628906 33.050781 C 29.949219 33.59375 29.859375 34.738281 29.671875 35.539062 C 29.507812 36.242188 29.335938 36.941406 29.136719 37.632812 C 29.023438 38.054688 28.925781 38.480469 28.828125 38.90625 C 28.691406 39.492188 28.539062 40.0625 28.332031 40.632812 C 28.226562 40.957031 28.191406 41.277344 28.152344 41.617188 C 28.003906 41.617188 27.855469 41.617188 27.703125 41.617188 C 27.5625 41.359375 27.421875 41.097656 27.28125 40.839844 C 27.238281 40.761719 27.199219 40.6875 27.15625 40.609375 C 26.941406 40.210938 26.730469 39.8125 26.535156 39.40625 C 26.390625 39.050781 26.390625 39.050781 26.125 38.949219 C 25.664062 38.867188 25.664062 38.867188 25.226562 38.949219 C 25.011719 39.175781 24.863281 39.40625 24.710938 39.675781 C 24.65625 39.765625 24.605469 39.855469 24.550781 39.949219 C 24.5 40.046875 24.449219 40.140625 24.398438 40.238281 C 23.90625 40.675781 23.363281 40.578125 22.726562 40.570312 C 22.515625 40.570312 22.515625 40.570312 22.296875 40.570312 C 21.914062 40.566406 21.527344 40.566406 21.144531 40.5625 C 20.738281 40.558594 20.335938 40.558594 19.933594 40.558594 C 19.171875 40.554688 18.410156 40.550781 17.648438 40.546875 C 16.777344 40.539062 15.910156 40.535156 15.042969 40.535156 C 13.257812 40.527344 11.46875 40.519531 9.683594 40.503906 C 9.578125 40.019531 9.554688 39.550781 9.554688 39.054688 C 9.550781 38.96875 9.550781 38.882812 9.550781 38.792969 C 9.550781 38.511719 9.550781 38.234375 9.550781 37.953125 C 9.550781 37.855469 9.550781 37.761719 9.550781 37.664062 C 9.554688 36.191406 9.59375 34.734375 9.796875 33.273438 C 9.808594 33.195312 9.816406 33.117188 9.828125 33.035156 C 10.148438 30.703125 10.855469 28.40625 11.824219 26.261719 C 11.886719 26.117188 11.886719 26.117188 11.953125 25.972656 C 12.804688 24.09375 13.816406 22.332031 15.089844 20.699219 C 15.183594 20.578125 15.273438 20.457031 15.367188 20.335938 C 16.695312 18.609375 18.214844 17.042969 19.933594 15.691406 C 20.054688 15.59375 20.175781 15.496094 20.296875 15.398438 C 21.289062 14.601562 22.332031 13.902344 23.421875 13.242188 C 23.492188 13.199219 23.5625 13.15625 23.636719 13.109375 C 25.679688 11.867188 27.980469 10.972656 30.292969 10.347656 C 30.382812 10.324219 30.472656 10.300781 30.5625 10.273438 C 34.832031 9.105469 39.722656 9.011719 44.03125 10.015625 Z M 44.03125 10.015625 "/>
<path style=" stroke:none;fill-rule:nonzero;fill:rgb(14.901961%,21.568628%,45.490196%);fill-opacity:1;" d="M 37.613281 20.808594 C 37.6875 20.808594 37.761719 20.808594 37.835938 20.808594 C 37.972656 21.960938 38.085938 23.105469 38.136719 24.261719 C 38.152344 24.585938 38.171875 24.902344 38.230469 25.21875 C 38.304688 25.699219 38.335938 26.171875 38.367188 26.652344 C 38.378906 26.863281 38.394531 27.070312 38.40625 27.277344 C 38.429688 27.601562 38.449219 27.925781 38.472656 28.25 C 38.492188 28.5625 38.511719 28.878906 38.535156 29.191406 C 38.539062 29.289062 38.546875 29.386719 38.550781 29.484375 C 38.589844 30.035156 38.6875 30.515625 38.851562 31.046875 C 38.886719 31.304688 38.886719 31.304688 38.894531 31.535156 C 38.898438 31.617188 38.902344 31.703125 38.90625 31.789062 C 38.910156 31.917969 38.910156 31.917969 38.914062 32.046875 C 38.9375 32.648438 38.988281 33.230469 39.078125 33.828125 C 39.097656 34.128906 39.113281 34.429688 39.125 34.734375 C 39.167969 35.570312 39.238281 36.398438 39.324219 37.230469 C 39.417969 38.179688 39.492188 39.132812 39.5625 40.082031 C 39.597656 40.550781 39.632812 41.011719 39.699219 41.472656 C 39.777344 42.015625 39.792969 42.554688 39.808594 43.101562 C 39.835938 43.640625 39.9375 44.101562 40.089844 44.621094 C 40.117188 44.929688 40.136719 45.226562 40.144531 45.535156 C 40.183594 46.300781 40.230469 47.070312 40.300781 47.835938 C 40.308594 47.929688 40.316406 48.023438 40.324219 48.121094 C 40.378906 48.777344 40.378906 48.777344 40.765625 49.296875 C 41.226562 49.351562 41.386719 49.332031 41.777344 49.074219 C 42.054688 48.382812 42.222656 47.664062 42.402344 46.945312 C 42.519531 46.46875 42.660156 46.007812 42.824219 45.542969 C 42.929688 45.21875 43 44.890625 43.074219 44.558594 C 43.183594 44.074219 43.316406 43.625 43.503906 43.164062 C 43.617188 42.851562 43.679688 42.53125 43.746094 42.207031 C 43.828125 41.859375 43.945312 41.53125 44.0625 41.195312 C 44.1875 40.820312 44.277344 40.441406 44.371094 40.058594 C 44.40625 39.949219 44.445312 39.839844 44.480469 39.726562 C 44.59375 39.761719 44.703125 39.800781 44.820312 39.835938 C 44.9375 40.089844 45.03125 40.332031 45.121094 40.59375 C 45.179688 40.757812 45.238281 40.917969 45.296875 41.078125 C 45.328125 41.164062 45.359375 41.25 45.394531 41.339844 C 45.578125 41.839844 45.777344 42.335938 45.972656 42.828125 C 46.011719 42.925781 46.050781 43.023438 46.089844 43.121094 C 46.128906 43.214844 46.164062 43.304688 46.199219 43.398438 C 46.25 43.519531 46.25 43.519531 46.300781 43.640625 C 46.394531 43.863281 46.394531 43.863281 46.621094 44.066406 C 46.949219 44.121094 46.949219 44.121094 47.296875 44.066406 C 47.714844 43.726562 47.957031 43.296875 48.210938 42.835938 C 48.632812 42.085938 48.632812 42.085938 48.875 41.730469 C 49.167969 41.6875 49.167969 41.6875 49.546875 41.6875 C 49.761719 41.6875 49.761719 41.6875 49.980469 41.6875 C 50.140625 41.6875 50.300781 41.691406 50.460938 41.691406 C 50.628906 41.691406 50.796875 41.691406 50.964844 41.691406 C 51.417969 41.691406 51.875 41.691406 52.332031 41.695312 C 52.804688 41.699219 53.28125 41.699219 53.757812 41.699219 C 54.660156 41.699219 55.5625 41.703125 56.464844 41.707031 C 57.488281 41.710938 58.515625 41.710938 59.542969 41.710938 C 61.65625 41.714844 63.765625 41.722656 65.878906 41.730469 C 65.804688 42.066406 65.734375 42.40625 65.664062 42.746094 C 65.640625 42.839844 65.621094 42.9375 65.601562 43.035156 C 64.839844 46.617188 63.480469 50.230469 61.261719 53.191406 C 61.210938 53.257812 61.160156 53.328125 61.109375 53.398438 C 60.417969 54.339844 59.699219 55.230469 58.894531 56.085938 C 58.765625 56.230469 58.636719 56.378906 58.507812 56.53125 C 57.667969 57.480469 56.746094 58.304688 55.742188 59.089844 C 55.625 59.183594 55.507812 59.28125 55.390625 59.375 C 51.765625 62.304688 47.28125 64.214844 42.679688 64.988281 C 42.585938 65.003906 42.492188 65.019531 42.394531 65.039062 C 38.640625 65.695312 34.417969 65.527344 30.742188 64.542969 C 30.65625 64.519531 30.570312 64.496094 30.484375 64.472656 C 26.21875 63.355469 22.203125 61.203125 18.972656 58.230469 C 18.742188 58.019531 18.507812 57.820312 18.265625 57.621094 C 14.011719 53.941406 10.683594 47.933594 9.910156 42.398438 C 9.898438 42.09375 9.898438 42.09375 9.910156 41.839844 C 10.023438 41.730469 10.023438 41.730469 10.261719 41.714844 C 10.371094 41.714844 10.476562 41.714844 10.589844 41.714844 C 10.710938 41.714844 10.832031 41.714844 10.960938 41.714844 C 11.164062 41.714844 11.164062 41.714844 11.371094 41.714844 C 11.589844 41.714844 11.804688 41.714844 12.023438 41.714844 C 12.257812 41.714844 12.492188 41.714844 12.726562 41.714844 C 13.21875 41.714844 13.707031 41.710938 14.195312 41.710938 C 14.277344 41.710938 14.359375 41.710938 14.445312 41.710938 C 14.613281 41.710938 14.785156 41.707031 14.953125 41.707031 C 16.09375 41.703125 17.230469 41.703125 18.371094 41.703125 C 19.140625 41.703125 19.90625 41.699219 20.675781 41.695312 C 21.082031 41.695312 21.488281 41.691406 21.894531 41.695312 C 22.347656 41.695312 22.800781 41.691406 23.257812 41.691406 C 23.457031 41.691406 23.457031 41.691406 23.664062 41.691406 C 24.394531 41.691406 24.394531 41.691406 25.019531 41.351562 C 25.121094 41.207031 25.121094 41.207031 25.226562 41.0625 C 25.332031 40.910156 25.445312 40.761719 25.5625 40.617188 C 25.675781 40.617188 25.785156 40.617188 25.902344 40.617188 C 25.945312 40.707031 25.992188 40.796875 26.039062 40.890625 C 26.210938 41.222656 26.382812 41.554688 26.554688 41.886719 C 26.628906 42.03125 26.703125 42.175781 26.777344 42.320312 C 26.882812 42.527344 26.992188 42.734375 27.101562 42.941406 C 27.164062 43.066406 27.226562 43.191406 27.292969 43.320312 C 27.464844 43.644531 27.464844 43.644531 27.816406 43.84375 C 28.226562 43.808594 28.226562 43.808594 28.605469 43.730469 C 28.871094 43.097656 29.046875 42.457031 29.210938 41.789062 C 29.351562 41.210938 29.507812 40.636719 29.671875 40.058594 C 29.9375 39.136719 30.175781 38.210938 30.40625 37.277344 C 30.480469 36.980469 30.554688 36.683594 30.628906 36.386719 C 30.703125 36.386719 30.777344 36.386719 30.855469 36.386719 C 31.128906 38.277344 31.355469 40.152344 31.304688 42.0625 C 31.378906 42.0625 31.453125 42.0625 31.53125 42.0625 C 31.664062 42.621094 31.683594 43.175781 31.710938 43.746094 C 31.730469 44.0625 31.75 44.367188 31.8125 44.675781 C 31.90625 45.148438 31.914062 45.625 31.9375 46.101562 C 31.957031 46.449219 31.984375 46.738281 32.09375 47.070312 C 32.113281 47.367188 32.132812 47.664062 32.144531 47.960938 C 32.175781 48.613281 32.246094 49.230469 32.378906 49.871094 C 32.46875 50.414062 32.488281 50.960938 32.515625 51.511719 C 32.523438 51.84375 32.523438 51.84375 32.65625 52.078125 C 32.679688 52.332031 32.699219 52.582031 32.714844 52.835938 C 32.746094 53.378906 32.746094 53.378906 32.828125 53.914062 C 32.921875 54.398438 32.914062 54.894531 32.929688 55.386719 C 33.003906 55.808594 33.09375 55.949219 33.445312 56.195312 C 33.863281 56.179688 33.863281 56.179688 34.234375 56.085938 C 34.464844 55.5 34.527344 54.941406 34.578125 54.324219 C 34.589844 54.222656 34.597656 54.121094 34.609375 54.015625 C 34.671875 53.277344 34.722656 52.539062 34.757812 51.800781 C 34.773438 51.484375 34.796875 51.179688 34.851562 50.867188 C 34.929688 50.402344 34.945312 49.933594 34.964844 49.464844 C 35.007812 48.496094 35.007812 48.496094 35.078125 48.070312 C 35.171875 47.523438 35.175781 46.96875 35.195312 46.410156 C 35.199219 46.320312 35.199219 46.230469 35.203125 46.140625 C 35.207031 46.058594 35.210938 45.980469 35.214844 45.894531 C 35.246094 45.625 35.246094 45.625 35.355469 45.269531 C 35.496094 44.761719 35.535156 44.277344 35.566406 43.75 C 35.570312 43.644531 35.578125 43.542969 35.585938 43.4375 C 35.609375 43.109375 35.628906 42.78125 35.648438 42.453125 C 35.671875 42.125 35.691406 41.796875 35.714844 41.46875 C 35.726562 41.265625 35.738281 41.0625 35.753906 40.859375 C 35.785156 40.328125 35.84375 39.808594 35.921875 39.28125 C 35.9375 39.101562 35.945312 38.921875 35.949219 38.742188 C 35.957031 38.597656 35.957031 38.597656 35.960938 38.453125 C 35.96875 38.257812 35.976562 38.0625 35.980469 37.867188 C 35.984375 37.773438 35.988281 37.679688 35.992188 37.582031 C 35.996094 37.453125 35.996094 37.453125 36 37.324219 C 36.035156 37.054688 36.035156 37.054688 36.148438 36.75 C 36.292969 36.292969 36.308594 35.863281 36.324219 35.382812 C 36.328125 35.289062 36.332031 35.191406 36.335938 35.09375 C 36.351562 34.792969 36.363281 34.488281 36.375 34.183594 C 36.390625 33.785156 36.40625 33.382812 36.421875 32.984375 C 36.425781 32.894531 36.429688 32.804688 36.433594 32.710938 C 36.453125 32.277344 36.492188 31.867188 36.597656 31.445312 C 36.734375 30.886719 36.769531 30.332031 36.804688 29.761719 C 36.8125 29.652344 36.816406 29.542969 36.824219 29.433594 C 36.847656 29.089844 36.867188 28.746094 36.886719 28.402344 C 36.910156 28.058594 36.929688 27.714844 36.953125 27.371094 C 36.964844 27.15625 36.976562 26.941406 36.992188 26.730469 C 37.019531 26.265625 37.058594 25.824219 37.164062 25.371094 C 37.179688 25.058594 37.191406 24.746094 37.203125 24.433594 C 37.257812 23.214844 37.429688 22.015625 37.613281 20.808594 Z M 37.613281 20.808594 "/>
<path style=" stroke:none;fill-rule:nonzero;fill:rgb(0%,68.627453%,63.137257%);fill-opacity:1;" d="M 36.710938 1.445312 C 36.710938 3.613281 36.710938 5.78125 36.710938 8.011719 C 35.09375 8.175781 35.09375 8.175781 33.445312 8.347656 C 32.894531 8.429688 32.363281 8.515625 31.820312 8.632812 C 31.6875 8.660156 31.554688 8.6875 31.421875 8.714844 C 23.703125 10.429688 17.15625 15.089844 12.835938 21.589844 C 12.796875 21.652344 12.753906 21.714844 12.707031 21.78125 C 11.578125 23.488281 10.734375 25.398438 9.910156 27.261719 C 8.511719 26.863281 7.128906 26.425781 5.753906 25.945312 C 5.042969 25.699219 4.328125 25.464844 3.605469 25.261719 C 3.753906 24.488281 3.992188 23.808594 4.316406 23.089844 C 4.363281 22.980469 4.414062 22.871094 4.464844 22.753906 C 5.761719 19.902344 7.335938 17.222656 9.347656 14.800781 C 9.394531 14.742188 9.445312 14.683594 9.492188 14.621094 C 10.859375 12.984375 12.3125 11.375 13.964844 10.015625 C 14.023438 9.964844 14.082031 9.917969 14.140625 9.867188 C 15.9375 8.371094 17.835938 7.046875 19.894531 5.929688 C 20.066406 5.835938 20.238281 5.742188 20.410156 5.644531 C 23.488281 3.933594 26.839844 2.804688 30.292969 2.113281 C 30.394531 2.09375 30.5 2.074219 30.605469 2.050781 C 31.734375 1.824219 32.863281 1.640625 34.007812 1.53125 C 34.097656 1.519531 34.1875 1.511719 34.28125 1.503906 C 35.097656 1.433594 35.882812 1.445312 36.710938 1.445312 Z M 36.710938 1.445312 "/>
<path style=" stroke:none;fill-rule:nonzero;fill:rgb(52.156866%,30.19608%,62.352943%);fill-opacity:1;" d="M 3.039062 26.707031 C 3.710938 26.796875 4.359375 27.015625 4.996094 27.226562 C 5.125 27.269531 5.125 27.269531 5.253906 27.3125 C 5.433594 27.371094 5.613281 27.433594 5.792969 27.492188 C 6.066406 27.582031 6.335938 27.671875 6.609375 27.761719 C 7.523438 28.066406 8.441406 28.375 9.347656 28.710938 C 9.28125 29.425781 9.148438 30.09375 8.964844 30.789062 C 8.65625 32.015625 8.476562 33.242188 8.332031 34.496094 C 8.324219 34.582031 8.3125 34.671875 8.300781 34.761719 C 7.429688 42.3125 10.113281 49.953125 14.804688 55.847656 C 16.105469 57.457031 17.621094 59.011719 19.277344 60.261719 C 19.480469 60.425781 19.480469 60.425781 19.59375 60.648438 C 18.890625 61.636719 18.183594 62.621094 17.46875 63.601562 C 17.378906 63.722656 17.378906 63.722656 17.289062 63.847656 C 16.902344 64.378906 16.503906 64.90625 16.105469 65.429688 C 15.757812 65.367188 15.546875 65.265625 15.273438 65.046875 C 15.203125 64.992188 15.132812 64.933594 15.058594 64.875 C 14.945312 64.78125 14.945312 64.78125 14.828125 64.6875 C 14.75 64.621094 14.671875 64.558594 14.589844 64.492188 C 13.746094 63.800781 12.949219 63.066406 12.164062 62.316406 C 12.101562 62.257812 12.039062 62.199219 11.972656 62.136719 C 11.285156 61.480469 10.640625 60.804688 10.042969 60.0625 C 9.792969 59.75 9.53125 59.453125 9.269531 59.152344 C 7.894531 57.515625 6.757812 55.730469 5.742188 53.859375 C 5.691406 53.761719 5.636719 53.667969 5.585938 53.570312 C 3.148438 49.085938 1.574219 43.8125 1.554688 38.707031 C 1.554688 38.515625 1.554688 38.515625 1.550781 38.320312 C 1.550781 38.046875 1.550781 37.777344 1.550781 37.507812 C 1.546875 37.105469 1.546875 36.699219 1.542969 36.296875 C 1.53125 34.101562 1.726562 31.960938 2.1875 29.816406 C 2.226562 29.644531 2.226562 29.644531 2.261719 29.46875 C 2.796875 26.949219 2.796875 26.949219 3.039062 26.707031 Z M 3.039062 26.707031 "/>
<path style=" stroke:none;fill-rule:nonzero;fill:rgb(44.313726%,71.764708%,28.627452%);fill-opacity:1;" d="M 38.289062 1.445312 C 40.144531 1.445312 40.144531 1.445312 40.984375 1.53125 C 41.132812 1.542969 41.132812 1.542969 41.285156 1.558594 C 42.472656 1.683594 43.644531 1.890625 44.820312 2.113281 C 44.910156 2.132812 44.996094 2.148438 45.089844 2.164062 C 46.136719 2.367188 47.160156 2.640625 48.183594 2.941406 C 48.289062 2.972656 48.394531 3.003906 48.5 3.035156 C 49.285156 3.273438 50.035156 3.574219 50.789062 3.894531 C 50.902344 3.941406 51.015625 3.992188 51.132812 4.039062 C 52.546875 4.640625 53.960938 5.238281 55.292969 6.007812 C 55.378906 6.058594 55.46875 6.109375 55.558594 6.164062 C 57.636719 7.378906 59.574219 8.753906 61.375 10.347656 C 61.429688 10.398438 61.488281 10.449219 61.546875 10.503906 C 62.761719 11.574219 63.949219 12.679688 64.960938 13.941406 C 65.210938 14.253906 65.472656 14.554688 65.738281 14.855469 C 67.554688 17.011719 71.058594 21.375 71.058594 24.257812 C 70.898438 24.308594 70.898438 24.308594 70.734375 24.355469 C 69.910156 24.609375 69.09375 24.867188 68.28125 25.140625 C 68.199219 25.167969 68.121094 25.195312 68.035156 25.222656 C 67.710938 25.332031 67.382812 25.441406 67.054688 25.554688 C 66.8125 25.636719 66.566406 25.71875 66.324219 25.800781 C 66.25 25.828125 66.175781 25.851562 66.097656 25.878906 C 65.578125 26.050781 65.578125 26.050781 65.203125 25.929688 C 65.070312 25.710938 65.070312 25.710938 64.941406 25.425781 C 64.894531 25.324219 64.84375 25.21875 64.796875 25.109375 C 64.742188 24.996094 64.691406 24.882812 64.640625 24.765625 C 63.484375 22.308594 61.964844 20.050781 60.136719 18.027344 C 60.082031 17.96875 60.03125 17.910156 59.976562 17.851562 C 58.9375 16.703125 57.867188 15.648438 56.644531 14.6875 C 56.523438 14.589844 56.402344 14.492188 56.28125 14.398438 C 52.464844 11.339844 47.6875 9.1875 42.8125 8.492188 C 42.605469 8.460938 42.398438 8.425781 42.191406 8.390625 C 40.898438 8.164062 39.601562 8.117188 38.289062 8.011719 C 38.289062 5.84375 38.289062 3.679688 38.289062 1.445312 Z M 38.289062 1.445312 "/>
<path style=" stroke:none;fill-rule:nonzero;fill:rgb(91.764706%,14.117648%,48.627451%);fill-opacity:1;" d="M 55.292969 61.089844 C 55.757812 61.523438 56.113281 61.984375 56.476562 62.503906 C 56.59375 62.671875 56.710938 62.839844 56.828125 63.003906 C 56.890625 63.09375 56.953125 63.179688 57.015625 63.269531 C 57.347656 63.734375 57.683594 64.199219 58.023438 64.660156 C 58.121094 64.792969 58.121094 64.792969 58.21875 64.925781 C 58.371094 65.132812 58.519531 65.335938 58.671875 65.542969 C 58.519531 65.890625 58.382812 66.066406 58.0625 66.277344 C 57.984375 66.328125 57.90625 66.378906 57.824219 66.433594 C 57.695312 66.515625 57.695312 66.515625 57.566406 66.601562 C 57.433594 66.6875 57.433594 66.6875 57.292969 66.777344 C 54.507812 68.554688 51.59375 69.894531 48.441406 70.917969 C 48.277344 70.96875 48.113281 71.023438 47.949219 71.082031 C 39.570312 73.921875 29.652344 72.828125 21.777344 69.074219 C 20.242188 68.324219 18.785156 67.457031 17.34375 66.542969 C 17.523438 66.078125 17.753906 65.699219 18.054688 65.300781 C 18.101562 65.234375 18.152344 65.167969 18.199219 65.097656 C 18.308594 64.953125 18.414062 64.808594 18.519531 64.664062 C 18.703125 64.414062 18.886719 64.164062 19.070312 63.914062 C 19.652344 63.117188 20.234375 62.320312 20.832031 61.535156 C 21.292969 61.699219 21.65625 61.921875 22.058594 62.191406 C 24.3125 63.65625 26.800781 64.738281 29.390625 65.476562 C 29.628906 65.546875 29.867188 65.617188 30.109375 65.6875 C 33.109375 66.5625 36.1875 66.71875 39.300781 66.65625 C 39.382812 66.65625 39.464844 66.652344 39.550781 66.652344 C 40.648438 66.636719 41.726562 66.460938 42.808594 66.285156 C 42.949219 66.265625 43.089844 66.242188 43.234375 66.21875 C 44.199219 66.058594 45.121094 65.824219 46.058594 65.542969 C 46.210938 65.5 46.359375 65.457031 46.511719 65.417969 C 49.65625 64.496094 52.65625 63.015625 55.292969 61.089844 Z M 55.292969 61.089844 "/>
<path style=" stroke:none;fill-rule:nonzero;fill:rgb(91.37255%,43.529412%,19.607843%);fill-opacity:1;" d="M 71.734375 25.816406 C 72.738281 28.84375 73.4375 31.972656 73.441406 35.171875 C 73.441406 35.300781 73.441406 35.425781 73.445312 35.558594 C 73.445312 35.824219 73.445312 36.089844 73.445312 36.359375 C 73.445312 36.757812 73.445312 37.160156 73.449219 37.558594 C 73.453125 39.074219 73.398438 40.5625 73.199219 42.0625 C 73.183594 42.183594 73.167969 42.304688 73.148438 42.425781 C 73.109375 42.71875 73.058594 43.003906 73.007812 43.292969 C 72.988281 43.398438 72.96875 43.503906 72.953125 43.609375 C 71.480469 51.414062 67.113281 59.28125 60.722656 64.234375 C 60.472656 64.421875 60.472656 64.421875 60.285156 64.625 C 60.136719 64.765625 60.136719 64.765625 59.910156 64.765625 C 59.699219 64.496094 59.503906 64.222656 59.3125 63.941406 C 59.191406 63.769531 59.070312 63.597656 58.945312 63.425781 C 58.882812 63.332031 58.820312 63.242188 58.753906 63.148438 C 58.429688 62.691406 58.101562 62.238281 57.769531 61.789062 C 57.710938 61.703125 57.648438 61.621094 57.585938 61.535156 C 57.28125 61.117188 56.972656 60.710938 56.644531 60.3125 C 56.8125 59.910156 57.042969 59.6875 57.375 59.402344 C 57.476562 59.3125 57.578125 59.226562 57.683594 59.136719 C 57.878906 58.964844 58.078125 58.796875 58.277344 58.625 C 63.550781 54.039062 66.917969 46.714844 67.441406 39.855469 C 67.695312 35.847656 67.324219 31.765625 65.960938 27.964844 C 65.878906 27.707031 65.878906 27.707031 65.878906 27.484375 C 66.523438 27.269531 67.167969 27.050781 67.8125 26.832031 C 68.035156 26.757812 68.253906 26.683594 68.472656 26.609375 C 68.789062 26.503906 69.105469 26.398438 69.417969 26.289062 C 69.515625 26.257812 69.613281 26.222656 69.714844 26.191406 C 69.894531 26.128906 70.078125 26.070312 70.257812 26.007812 C 70.464844 25.9375 70.671875 25.863281 70.878906 25.792969 C 71.210938 25.695312 71.40625 25.722656 71.734375 25.816406 Z M 71.734375 25.816406 "/>
<path style=" stroke:none;fill-rule:nonzero;fill:rgb(20%,41.176471%,68.235296%);fill-opacity:1;" d="M 49.261719 40.132812 C 49.480469 40.128906 49.480469 40.128906 49.707031 40.128906 C 49.867188 40.132812 50.03125 40.132812 50.191406 40.132812 C 50.363281 40.132812 50.535156 40.132812 50.703125 40.132812 C 51.167969 40.132812 51.632812 40.136719 52.09375 40.136719 C 52.578125 40.140625 53.0625 40.140625 53.546875 40.140625 C 54.464844 40.140625 55.382812 40.144531 56.300781 40.148438 C 57.34375 40.152344 58.390625 40.152344 59.433594 40.15625 C 61.582031 40.15625 63.730469 40.164062 65.878906 40.171875 C 65.914062 40.28125 65.953125 40.390625 65.992188 40.503906 C 65.902344 40.503906 65.8125 40.503906 65.71875 40.507812 C 63.527344 40.511719 61.339844 40.519531 59.148438 40.53125 C 58.089844 40.535156 57.03125 40.539062 55.972656 40.542969 C 55.046875 40.546875 54.125 40.550781 53.203125 40.554688 C 52.714844 40.558594 52.226562 40.558594 51.738281 40.5625 C 51.277344 40.5625 50.816406 40.5625 50.355469 40.566406 C 50.1875 40.566406 50.019531 40.566406 49.851562 40.566406 C 49.621094 40.566406 49.386719 40.570312 49.15625 40.570312 C 48.964844 40.574219 48.964844 40.574219 48.765625 40.574219 C 48.386719 40.621094 48.171875 40.734375 47.859375 40.949219 C 47.882812 40.75 47.882812 40.75 47.972656 40.503906 C 48.40625 40.183594 48.726562 40.128906 49.261719 40.132812 Z M 49.261719 40.132812 "/>
<path style=" stroke:none;fill-rule:nonzero;fill:rgb(32.549021%,49.803922%,74.117649%);fill-opacity:1;" d="M 9.910156 40.171875 C 14.667969 40.171875 19.421875 40.171875 24.324219 40.171875 C 24.25 40.28125 24.175781 40.390625 24.097656 40.503906 C 23.847656 40.546875 23.847656 40.546875 23.523438 40.546875 C 23.402344 40.546875 23.28125 40.546875 23.15625 40.546875 C 23.023438 40.546875 22.886719 40.542969 22.75 40.542969 C 22.539062 40.542969 22.539062 40.542969 22.324219 40.542969 C 21.9375 40.542969 21.550781 40.542969 21.164062 40.539062 C 20.761719 40.535156 20.359375 40.535156 19.957031 40.535156 C 19.191406 40.535156 18.425781 40.53125 17.664062 40.53125 C 16.792969 40.527344 15.921875 40.523438 15.054688 40.523438 C 13.265625 40.519531 11.472656 40.511719 9.683594 40.503906 C 9.757812 40.46875 9.832031 40.433594 9.910156 40.394531 C 9.910156 40.320312 9.910156 40.246094 9.910156 40.171875 Z M 9.910156 40.171875 "/>
<path style=" stroke:none;fill-rule:nonzero;fill:rgb(39.215687%,35.294119%,48.235294%);fill-opacity:1;" d="M 25.113281 41.285156 C 25.148438 41.359375 25.1875 41.429688 25.226562 41.507812 C 25.152344 41.652344 25.078125 41.800781 25 41.953125 C 20.019531 41.953125 15.039062 41.953125 9.910156 41.953125 C 9.945312 41.878906 9.984375 41.804688 10.023438 41.730469 C 10.097656 41.730469 10.171875 41.730469 10.25 41.730469 C 12.074219 41.722656 13.898438 41.714844 15.726562 41.703125 C 16.609375 41.699219 17.492188 41.695312 18.375 41.691406 C 19.144531 41.6875 19.910156 41.683594 20.679688 41.679688 C 21.089844 41.675781 21.496094 41.675781 21.902344 41.675781 C 22.359375 41.671875 22.8125 41.667969 23.265625 41.667969 C 23.402344 41.667969 23.539062 41.667969 23.675781 41.667969 C 23.863281 41.664062 23.863281 41.664062 24.050781 41.664062 C 24.160156 41.660156 24.265625 41.660156 24.378906 41.660156 C 24.707031 41.609375 24.867188 41.5 25.113281 41.285156 Z M 25.113281 41.285156 "/>
<path style=" stroke:none;fill-rule:nonzero;fill:rgb(51.764709%,49.411765%,59.607846%);fill-opacity:1;" d="M 36.148438 36.5 C 36.1875 36.5 36.222656 36.5 36.261719 36.5 C 36.246094 36.964844 36.230469 37.429688 36.210938 37.898438 C 36.207031 38.027344 36.203125 38.160156 36.199219 38.296875 C 36.175781 38.929688 36.128906 39.542969 36.035156 40.171875 C 36.011719 40.589844 36 41.003906 35.988281 41.421875 C 35.945312 42.53125 35.855469 43.625 35.722656 44.730469 C 35.664062 45.25 35.625 45.769531 35.585938 46.292969 C 35.511719 46.292969 35.4375 46.292969 35.359375 46.292969 C 35.363281 46.429688 35.363281 46.566406 35.363281 46.707031 C 35.367188 46.886719 35.367188 47.070312 35.367188 47.25 C 35.367188 47.339844 35.371094 47.429688 35.371094 47.523438 C 35.371094 48.019531 35.335938 48.472656 35.246094 48.960938 C 35.230469 49.257812 35.214844 49.550781 35.207031 49.84375 C 35.136719 51.410156 34.957031 52.96875 34.796875 54.527344 C 34.722656 54.527344 34.648438 54.527344 34.570312 54.527344 C 34.578125 54.445312 34.585938 54.363281 34.59375 54.277344 C 34.65625 53.464844 34.710938 52.65625 34.753906 51.847656 C 34.769531 51.515625 34.796875 51.191406 34.855469 50.863281 C 34.929688 50.398438 34.945312 49.933594 34.964844 49.464844 C 35.007812 48.496094 35.007812 48.496094 35.078125 48.070312 C 35.171875 47.523438 35.175781 46.96875 35.195312 46.410156 C 35.199219 46.320312 35.199219 46.230469 35.207031 46.140625 C 35.207031 46.058594 35.210938 45.980469 35.214844 45.894531 C 35.246094 45.625 35.246094 45.625 35.355469 45.269531 C 35.496094 44.761719 35.535156 44.277344 35.566406 43.75 C 35.570312 43.644531 35.578125 43.542969 35.585938 43.4375 C 35.609375 43.109375 35.628906 42.78125 35.648438 42.453125 C 35.671875 42.125 35.691406 41.796875 35.714844 41.46875 C 35.726562 41.265625 35.738281 41.0625 35.753906 40.859375 C 35.785156 40.328125 35.84375 39.808594 35.921875 39.28125 C 35.9375 39.101562 35.949219 38.917969 35.957031 38.738281 C 35.960938 38.640625 35.964844 38.546875 35.96875 38.449219 C 35.976562 38.25 35.984375 38.054688 35.992188 37.859375 C 36.011719 37.394531 36.035156 36.953125 36.148438 36.5 Z M 36.148438 36.5 "/>
<path style=" stroke:none;fill-rule:nonzero;fill:rgb(39.215687%,53.333336%,76.47059%);fill-opacity:1;" d="M 32.882812 43.511719 C 32.921875 43.511719 32.957031 43.511719 32.996094 43.511719 C 32.996094 43.695312 32.996094 43.878906 32.996094 44.066406 C 33.070312 44.066406 33.144531 44.066406 33.222656 44.066406 C 33.363281 45.476562 33.488281 46.878906 33.558594 48.292969 C 33.566406 48.183594 33.570312 48.074219 33.578125 47.957031 C 33.589844 47.8125 33.597656 47.671875 33.609375 47.523438 C 33.617188 47.378906 33.625 47.234375 33.636719 47.089844 C 33.671875 46.738281 33.671875 46.738281 33.785156 46.625 C 33.800781 46.476562 33.8125 46.328125 33.820312 46.175781 C 33.824219 46.085938 33.828125 45.996094 33.832031 45.902344 C 33.839844 45.761719 33.839844 45.761719 33.847656 45.617188 C 33.851562 45.523438 33.855469 45.425781 33.863281 45.328125 C 33.875 45.09375 33.886719 44.859375 33.894531 44.621094 C 34.007812 44.585938 34.121094 44.550781 34.234375 44.511719 C 34.179688 45.710938 34.105469 46.910156 34.007812 48.105469 C 33.996094 48.285156 33.996094 48.285156 33.980469 48.464844 C 33.9375 49.007812 33.886719 49.542969 33.785156 50.074219 C 33.710938 50.039062 33.636719 50 33.558594 49.964844 C 33.222656 48.910156 33.238281 47.707031 33.15625 46.613281 C 33.136719 46.328125 33.113281 46.042969 33.09375 45.757812 C 33.078125 45.582031 33.066406 45.40625 33.054688 45.230469 C 33.058594 44.839844 33.058594 44.839844 32.882812 44.511719 C 32.875 44.34375 32.875 44.171875 32.875 44.003906 C 32.875 43.910156 32.878906 43.820312 32.878906 43.726562 C 32.878906 43.652344 32.882812 43.582031 32.882812 43.511719 Z M 32.882812 43.511719 "/>
<path style=" stroke:none;fill-rule:nonzero;fill:rgb(38.431373%,35.686275%,49.411765%);fill-opacity:1;" d="M 37.613281 20.808594 C 37.6875 20.808594 37.761719 20.808594 37.835938 20.808594 C 38.011719 22.1875 38.09375 23.535156 38.0625 24.925781 C 38.027344 24.925781 37.988281 24.925781 37.949219 24.925781 C 37.914062 24.667969 37.875 24.414062 37.835938 24.148438 C 37.726562 24.148438 37.613281 24.148438 37.5 24.148438 C 37.460938 24.808594 37.425781 25.46875 37.386719 26.148438 C 37.3125 26.148438 37.238281 26.148438 37.164062 26.148438 C 37.164062 26.40625 37.164062 26.664062 37.164062 26.929688 C 37.125 26.929688 37.085938 26.929688 37.050781 26.929688 C 37.046875 26.773438 37.042969 26.617188 37.042969 26.464844 C 37.042969 26.375 37.039062 26.289062 37.039062 26.203125 C 37.050781 25.929688 37.050781 25.929688 37.105469 25.675781 C 37.183594 25.261719 37.1875 24.851562 37.203125 24.433594 C 37.257812 23.214844 37.429688 22.015625 37.613281 20.808594 Z M 37.613281 20.808594 "/>
<path style=" stroke:none;fill-rule:nonzero;fill:rgb(56.862748%,65.490198%,85.09804%);fill-opacity:1;" d="M 49.023438 40.378906 C 49.09375 40.378906 49.167969 40.378906 49.242188 40.378906 C 49.484375 40.378906 49.730469 40.378906 49.972656 40.382812 C 50.144531 40.382812 50.320312 40.382812 50.496094 40.382812 C 50.96875 40.382812 51.441406 40.382812 51.914062 40.382812 C 52.410156 40.382812 52.90625 40.382812 53.398438 40.382812 C 54.335938 40.382812 55.273438 40.386719 56.210938 40.386719 C 57.277344 40.386719 58.34375 40.386719 59.410156 40.386719 C 61.601562 40.390625 63.796875 40.390625 65.992188 40.394531 C 65.992188 40.429688 65.992188 40.46875 65.992188 40.503906 C 65.902344 40.503906 65.8125 40.503906 65.71875 40.507812 C 63.527344 40.511719 61.339844 40.519531 59.148438 40.53125 C 58.089844 40.535156 57.03125 40.539062 55.972656 40.542969 C 55.046875 40.546875 54.125 40.550781 53.203125 40.554688 C 52.714844 40.558594 52.226562 40.558594 51.738281 40.5625 C 51.277344 40.5625 50.816406 40.5625 50.355469 40.566406 C 50.1875 40.566406 50.019531 40.566406 49.851562 40.566406 C 49.621094 40.566406 49.386719 40.570312 49.15625 40.570312 C 48.964844 40.574219 48.964844 40.574219 48.765625 40.574219 C 48.386719 40.621094 48.171875 40.734375 47.859375 40.949219 C 47.894531 40.734375 47.894531 40.734375 47.972656 40.503906 C 48.347656 40.382812 48.628906 40.378906 49.023438 40.378906 Z M 49.023438 40.378906 "/>
<path style=" stroke:none;fill-rule:nonzero;fill:rgb(32.941177%,47.843137%,71.764708%);fill-opacity:1;" d="M 39.753906 28.265625 C 39.789062 28.265625 39.828125 28.265625 39.863281 28.265625 C 40.070312 29.089844 40.128906 29.890625 40.152344 30.738281 C 40.167969 31.125 40.183594 31.441406 40.316406 31.808594 C 40.492188 32.355469 40.476562 32.902344 40.492188 33.472656 C 40.496094 33.707031 40.503906 33.9375 40.511719 34.171875 C 40.515625 34.273438 40.519531 34.375 40.519531 34.480469 C 40.515625 34.71875 40.515625 34.71875 40.652344 34.828125 C 40.664062 35.035156 40.664062 35.242188 40.664062 35.449219 C 40.664062 35.574219 40.664062 35.699219 40.664062 35.828125 C 40.660156 35.960938 40.660156 36.09375 40.660156 36.226562 C 40.660156 36.359375 40.660156 36.492188 40.660156 36.628906 C 40.65625 36.957031 40.65625 37.285156 40.652344 37.613281 C 40.617188 37.613281 40.578125 37.613281 40.539062 37.613281 C 40.40625 36.378906 40.289062 35.15625 40.242188 33.917969 C 40.207031 33.546875 40.128906 33.226562 40.035156 32.867188 C 39.90625 32.277344 39.890625 31.667969 39.851562 31.066406 C 39.839844 30.933594 39.832031 30.796875 39.820312 30.660156 C 39.765625 29.859375 39.738281 29.066406 39.753906 28.265625 Z M 39.753906 28.265625 "/>
<path style=" stroke:none;fill-rule:nonzero;fill:rgb(38.039216%,52.156866%,74.117649%);fill-opacity:1;" d="M 36.710938 15.246094 C 36.75 15.246094 36.785156 15.246094 36.824219 15.246094 C 36.859375 16.4375 36.761719 17.597656 36.636719 18.78125 C 36.59375 19.191406 36.554688 19.601562 36.511719 20.011719 C 36.492188 20.238281 36.46875 20.46875 36.445312 20.695312 C 36.421875 20.917969 36.402344 21.140625 36.378906 21.359375 C 36.367188 21.496094 36.351562 21.632812 36.339844 21.777344 C 36.324219 21.898438 36.3125 22.019531 36.300781 22.144531 C 36.265625 22.445312 36.214844 22.738281 36.148438 23.035156 C 36.113281 23.035156 36.074219 23.035156 36.035156 23.035156 C 36.050781 22.46875 36.0625 21.902344 36.078125 21.335938 C 36.082031 21.140625 36.085938 20.949219 36.09375 20.757812 C 36.097656 20.480469 36.105469 20.203125 36.113281 19.925781 C 36.113281 19.839844 36.117188 19.753906 36.117188 19.664062 C 36.136719 19.054688 36.136719 19.054688 36.261719 18.804688 C 36.292969 18.398438 36.3125 17.992188 36.328125 17.585938 C 36.363281 16.925781 36.363281 16.925781 36.488281 16.804688 C 36.53125 16.542969 36.570312 16.28125 36.605469 16.015625 C 36.625 15.875 36.644531 15.730469 36.667969 15.582031 C 36.679688 15.472656 36.695312 15.359375 36.710938 15.246094 Z M 36.710938 15.246094 "/>
<path style=" stroke:none;fill-rule:nonzero;fill:rgb(45.490196%,43.529412%,55.29412%);fill-opacity:1;" d="M 38.0625 24.925781 C 38.101562 24.925781 38.136719 24.925781 38.175781 24.925781 C 38.285156 25.5 38.328125 26.070312 38.367188 26.652344 C 38.378906 26.863281 38.394531 27.070312 38.40625 27.277344 C 38.429688 27.601562 38.449219 27.925781 38.472656 28.25 C 38.492188 28.5625 38.511719 28.878906 38.535156 29.191406 C 38.539062 29.289062 38.546875 29.386719 38.550781 29.484375 C 38.589844 30.035156 38.691406 30.515625 38.851562 31.046875 C 38.886719 31.390625 38.886719 31.390625 38.898438 31.730469 C 38.902344 31.855469 38.90625 31.976562 38.910156 32.105469 C 38.914062 32.230469 38.917969 32.355469 38.921875 32.484375 C 38.925781 32.617188 38.929688 32.746094 38.933594 32.878906 C 38.945312 33.195312 38.957031 33.511719 38.964844 33.828125 C 38.890625 33.828125 38.816406 33.828125 38.738281 33.828125 C 38.703125 32.945312 38.664062 32.066406 38.625 31.15625 C 38.550781 31.15625 38.476562 31.15625 38.402344 31.15625 C 38.398438 31.0625 38.398438 31.0625 38.390625 30.964844 C 38.378906 30.671875 38.367188 30.378906 38.351562 30.085938 C 38.347656 29.984375 38.34375 29.886719 38.339844 29.78125 C 38.3125 29.265625 38.265625 28.773438 38.175781 28.265625 C 38.148438 27.945312 38.128906 27.625 38.113281 27.304688 C 38.109375 27.21875 38.101562 27.128906 38.097656 27.039062 C 38.0625 26.335938 38.050781 25.632812 38.0625 24.925781 Z M 38.0625 24.925781 "/>
<path style=" stroke:none;fill-rule:nonzero;fill:rgb(42.745098%,41.568628%,54.901963%);fill-opacity:1;" d="M 31.082031 39.613281 C 31.117188 39.613281 31.15625 39.613281 31.195312 39.613281 C 31.304688 40.15625 31.320312 40.667969 31.3125 41.214844 C 31.3125 41.296875 31.3125 41.378906 31.3125 41.460938 C 31.308594 41.664062 31.308594 41.863281 31.304688 42.0625 C 31.378906 42.0625 31.453125 42.0625 31.53125 42.0625 C 31.664062 42.621094 31.683594 43.175781 31.710938 43.746094 C 31.734375 44.160156 31.785156 44.550781 31.871094 44.957031 C 31.875 45.152344 31.878906 45.351562 31.875 45.546875 C 31.875 45.644531 31.875 45.742188 31.875 45.84375 C 31.871094 45.917969 31.871094 45.992188 31.871094 46.070312 C 31.835938 46.003906 31.804688 45.9375 31.769531 45.867188 C 31.640625 45.601562 31.640625 45.601562 31.417969 45.289062 C 31.386719 45.054688 31.386719 45.054688 31.375 44.78125 C 31.371094 44.683594 31.367188 44.585938 31.363281 44.484375 C 31.363281 44.382812 31.359375 44.28125 31.355469 44.175781 C 31.347656 43.976562 31.339844 43.773438 31.335938 43.574219 C 31.332031 43.484375 31.328125 43.394531 31.324219 43.300781 C 31.3125 43.042969 31.3125 43.042969 31.195312 42.730469 C 31.175781 42.492188 31.164062 42.253906 31.15625 42.015625 C 31.152344 41.878906 31.148438 41.738281 31.144531 41.59375 C 31.140625 41.449219 31.136719 41.300781 31.128906 41.152344 C 31.125 41.003906 31.121094 40.855469 31.117188 40.707031 C 31.105469 40.34375 31.09375 39.980469 31.082031 39.613281 Z M 31.082031 39.613281 "/>
<path style=" stroke:none;fill-rule:nonzero;fill:rgb(40.784314%,54.509807%,76.078433%);fill-opacity:1;" d="M 29.390625 35.71875 C 29.429688 35.71875 29.464844 35.71875 29.503906 35.71875 C 29.449219 36.371094 29.335938 36.960938 29.152344 37.585938 C 29.03125 38.023438 28.929688 38.464844 28.828125 38.90625 C 28.691406 39.492188 28.539062 40.0625 28.332031 40.632812 C 28.226562 40.957031 28.191406 41.277344 28.152344 41.617188 C 28.003906 41.617188 27.855469 41.617188 27.703125 41.617188 C 27.703125 41.507812 27.703125 41.398438 27.703125 41.285156 C 27.8125 41.320312 27.925781 41.359375 28.039062 41.394531 C 28.039062 41.289062 28.035156 41.183594 28.035156 41.074219 C 28.039062 40.726562 28.039062 40.726562 28.152344 40.503906 C 28.179688 40.335938 28.199219 40.164062 28.214844 39.992188 C 28.226562 39.898438 28.234375 39.808594 28.246094 39.714844 C 28.25 39.644531 28.257812 39.574219 28.265625 39.503906 C 28.339844 39.503906 28.414062 39.503906 28.492188 39.503906 C 28.488281 39.394531 28.488281 39.289062 28.484375 39.175781 C 28.492188 38.835938 28.492188 38.835938 28.605469 38.726562 C 28.617188 38.59375 28.632812 38.464844 28.644531 38.328125 C 28.691406 37.910156 28.808594 37.570312 28.96875 37.183594 C 29.101562 36.816406 29.164062 36.4375 29.230469 36.054688 C 29.277344 35.832031 29.277344 35.832031 29.390625 35.71875 Z M 29.390625 35.71875 "/>
<path style=" stroke:none;fill-rule:nonzero;fill:rgb(41.176471%,40.000001%,54.509807%);fill-opacity:1;" d="M 30.628906 36.386719 C 30.703125 36.386719 30.777344 36.386719 30.855469 36.386719 C 30.996094 37.320312 31.121094 38.222656 31.082031 39.171875 C 31.042969 39.171875 31.007812 39.171875 30.96875 39.171875 C 30.96875 38.984375 30.96875 38.800781 30.96875 38.613281 C 30.894531 38.613281 30.820312 38.613281 30.742188 38.613281 C 30.707031 38.394531 30.667969 38.171875 30.628906 37.945312 C 30.554688 38.167969 30.480469 38.386719 30.40625 38.613281 C 30.332031 38.613281 30.257812 38.613281 30.179688 38.613281 C 30.144531 38.6875 30.105469 38.761719 30.066406 38.835938 C 30.148438 38.292969 30.273438 37.769531 30.414062 37.238281 C 30.433594 37.15625 30.453125 37.074219 30.476562 36.988281 C 30.527344 36.789062 30.578125 36.589844 30.628906 36.386719 Z M 30.628906 36.386719 "/>
<path style=" stroke:none;fill-rule:nonzero;fill:rgb(57.647061%,66.666669%,85.882354%);fill-opacity:1;" d="M 49.0625 40.382812 C 49.136719 40.382812 49.214844 40.382812 49.292969 40.382812 C 49.542969 40.382812 49.792969 40.382812 50.042969 40.382812 C 50.21875 40.382812 50.390625 40.382812 50.566406 40.382812 C 51.023438 40.382812 51.480469 40.386719 51.9375 40.386719 C 52.402344 40.386719 52.867188 40.386719 53.335938 40.386719 C 54.25 40.390625 55.164062 40.390625 56.082031 40.394531 C 56.082031 40.429688 56.082031 40.46875 56.082031 40.503906 C 55.988281 40.507812 55.890625 40.507812 55.792969 40.507812 C 54.902344 40.515625 54.007812 40.523438 53.113281 40.53125 C 52.65625 40.535156 52.195312 40.539062 51.738281 40.542969 C 51.292969 40.546875 50.851562 40.550781 50.40625 40.558594 C 50.238281 40.558594 50.070312 40.558594 49.902344 40.5625 C 49.664062 40.5625 49.425781 40.566406 49.191406 40.570312 C 48.988281 40.570312 48.988281 40.570312 48.78125 40.570312 C 48.394531 40.621094 48.175781 40.726562 47.859375 40.949219 C 47.894531 40.734375 47.894531 40.734375 47.972656 40.503906 C 48.359375 40.378906 48.65625 40.378906 49.0625 40.382812 Z M 49.0625 40.382812 "/>
<path style=" stroke:none;fill-rule:nonzero;fill:rgb(37.254903%,52.156866%,75.294119%);fill-opacity:1;" d="M 39.300781 22.8125 C 39.339844 22.8125 39.375 22.8125 39.414062 22.8125 C 39.421875 22.890625 39.429688 22.96875 39.433594 23.050781 C 39.445312 23.152344 39.453125 23.257812 39.464844 23.363281 C 39.472656 23.464844 39.480469 23.566406 39.492188 23.671875 C 39.5 23.921875 39.5 23.921875 39.640625 24.035156 C 39.65625 24.332031 39.667969 24.625 39.675781 24.921875 C 39.675781 25.011719 39.679688 25.101562 39.683594 25.191406 C 39.691406 25.476562 39.695312 25.761719 39.703125 26.046875 C 39.707031 26.238281 39.710938 26.429688 39.71875 26.625 C 39.730469 27.097656 39.742188 27.570312 39.753906 28.042969 C 39.714844 28.042969 39.679688 28.042969 39.640625 28.042969 C 39.515625 27.398438 39.488281 26.761719 39.457031 26.109375 C 39.441406 25.746094 39.417969 25.394531 39.355469 25.035156 C 39.285156 24.59375 39.289062 24.164062 39.292969 23.714844 C 39.296875 23.628906 39.296875 23.542969 39.296875 23.453125 C 39.296875 23.238281 39.300781 23.023438 39.300781 22.8125 Z M 39.300781 22.8125 "/>
<path style=" stroke:none;fill-rule:nonzero;fill:rgb(29.411766%,48.235294%,72.549021%);fill-opacity:1;" d="M 34.007812 44.511719 C 34.082031 44.511719 34.15625 44.511719 34.234375 44.511719 C 34.222656 44.847656 34.207031 45.183594 34.191406 45.519531 C 34.1875 45.613281 34.183594 45.707031 34.179688 45.804688 C 34.148438 46.523438 34.082031 47.128906 33.671875 47.738281 C 33.667969 47.574219 33.664062 47.410156 33.664062 47.246094 C 33.664062 47.152344 33.660156 47.0625 33.660156 46.964844 C 33.671875 46.738281 33.671875 46.738281 33.785156 46.625 C 33.800781 46.476562 33.808594 46.328125 33.816406 46.179688 C 33.820312 46.089844 33.824219 46 33.828125 45.910156 C 33.832031 45.816406 33.835938 45.722656 33.839844 45.625 C 33.847656 45.4375 33.855469 45.253906 33.863281 45.066406 C 33.867188 44.984375 33.871094 44.902344 33.875 44.816406 C 33.894531 44.621094 33.894531 44.621094 34.007812 44.511719 Z M 34.007812 44.511719 "/>
<path style=" stroke:none;fill-rule:nonzero;fill:rgb(36.078432%,50.196081%,73.333335%);fill-opacity:1;" d="M 32.882812 43.511719 C 32.921875 43.511719 32.957031 43.511719 32.996094 43.511719 C 32.996094 43.695312 32.996094 43.878906 32.996094 44.066406 C 33.070312 44.066406 33.144531 44.066406 33.222656 44.066406 C 33.375 45.445312 33.480469 46.796875 33.445312 48.183594 C 33.410156 48.183594 33.371094 48.183594 33.332031 48.183594 C 33.324219 48.074219 33.3125 47.96875 33.304688 47.859375 C 33.269531 47.460938 33.230469 47.066406 33.195312 46.667969 C 33.179688 46.496094 33.164062 46.324219 33.148438 46.152344 C 33.125 45.90625 33.101562 45.660156 33.082031 45.414062 C 33.074219 45.335938 33.066406 45.257812 33.058594 45.179688 C 33.054688 44.8125 33.054688 44.8125 32.882812 44.511719 C 32.875 44.34375 32.875 44.171875 32.875 44.003906 C 32.875 43.910156 32.878906 43.820312 32.878906 43.726562 C 32.878906 43.652344 32.882812 43.582031 32.882812 43.511719 Z M 32.882812 43.511719 "/>
<path style=" stroke:none;fill-rule:nonzero;fill:rgb(48.235294%,59.607846%,79.215688%);fill-opacity:1;" d="M 39.753906 28.265625 C 39.789062 28.265625 39.828125 28.265625 39.863281 28.265625 C 40.113281 29.199219 40.117188 30.101562 40.105469 31.058594 C 40.101562 31.210938 40.101562 31.359375 40.101562 31.511719 C 40.097656 31.875 40.09375 32.242188 40.089844 32.605469 C 40.054688 32.605469 40.015625 32.605469 39.976562 32.605469 C 39.9375 32.109375 39.902344 31.617188 39.863281 31.125 C 39.855469 30.984375 39.84375 30.847656 39.832031 30.703125 C 39.773438 29.890625 39.738281 29.082031 39.753906 28.265625 Z M 39.753906 28.265625 "/>
<path style=" stroke:none;fill-rule:nonzero;fill:rgb(57.647061%,52.156866%,57.647061%);fill-opacity:1;" d="M 37.386719 22.699219 C 37.425781 22.699219 37.460938 22.699219 37.5 22.699219 C 37.460938 23.839844 37.425781 24.976562 37.386719 26.148438 C 37.3125 26.148438 37.238281 26.148438 37.164062 26.148438 C 37.164062 26.40625 37.164062 26.664062 37.164062 26.929688 C 37.125 26.929688 37.085938 26.929688 37.050781 26.929688 C 37.046875 26.773438 37.042969 26.617188 37.042969 26.464844 C 37.042969 26.375 37.039062 26.289062 37.039062 26.203125 C 37.050781 25.929688 37.050781 25.929688 37.101562 25.683594 C 37.1875 25.230469 37.199219 24.773438 37.21875 24.3125 C 37.265625 23.191406 37.265625 23.191406 37.386719 22.699219 Z M 37.386719 22.699219 "/>
<path style=" stroke:none;fill-rule:nonzero;fill:rgb(27.843139%,45.09804%,69.803923%);fill-opacity:1;" d="M 40.089844 31.492188 C 40.128906 31.492188 40.164062 31.492188 40.203125 31.492188 C 40.453125 32.089844 40.453125 32.621094 40.441406 33.257812 C 40.441406 33.355469 40.441406 33.453125 40.4375 33.554688 C 40.4375 33.792969 40.433594 34.035156 40.429688 34.273438 C 40.390625 34.273438 40.355469 34.273438 40.316406 34.273438 C 40.144531 33.335938 40.058594 32.441406 40.089844 31.492188 Z M 40.089844 31.492188 "/>
<path style=" stroke:none;fill-rule:nonzero;fill:rgb(41.568628%,55.686277%,78.039217%);fill-opacity:1;" d="M 41.105469 42.953125 C 41.140625 42.953125 41.179688 42.953125 41.214844 42.953125 C 41.289062 43.613281 41.363281 44.273438 41.441406 44.957031 C 41.515625 44.957031 41.589844 44.957031 41.667969 44.957031 C 41.636719 45.21875 41.601562 45.476562 41.554688 45.734375 C 41.480469 45.773438 41.40625 45.808594 41.328125 45.847656 C 41.183594 45.558594 41.191406 45.339844 41.179688 45.019531 C 41.175781 44.898438 41.171875 44.777344 41.167969 44.65625 C 41.160156 44.53125 41.15625 44.402344 41.152344 44.273438 C 41.148438 44.148438 41.144531 44.023438 41.136719 43.890625 C 41.125 43.578125 41.113281 43.265625 41.105469 42.953125 Z M 41.105469 42.953125 "/>
<path style=" stroke:none;fill-rule:nonzero;fill:rgb(43.529412%,42.352942%,55.29412%);fill-opacity:1;" d="M 46.171875 43.621094 C 46.230469 43.695312 46.292969 43.769531 46.355469 43.84375 C 46.605469 44.09375 46.605469 44.09375 46.953125 44.121094 C 47.367188 44.054688 47.558594 43.902344 47.859375 43.621094 C 47.761719 44.148438 47.761719 44.148438 47.636719 44.398438 C 47.472656 44.402344 47.308594 44.40625 47.140625 44.40625 C 47.050781 44.410156 46.960938 44.410156 46.867188 44.410156 C 46.621094 44.398438 46.621094 44.398438 46.394531 44.289062 C 46.394531 44.214844 46.394531 44.140625 46.394531 44.066406 C 46.320312 44.066406 46.246094 44.066406 46.171875 44.066406 C 46.171875 43.917969 46.171875 43.773438 46.171875 43.621094 Z M 46.171875 43.621094 "/>
<path style=" stroke:none;fill-rule:nonzero;fill:rgb(48.235294%,45.882353%,57.254905%);fill-opacity:1;" d="M 44.144531 40.949219 C 44.179688 40.949219 44.21875 40.949219 44.257812 40.949219 C 44.242188 41.128906 44.222656 41.308594 44.207031 41.484375 C 44.199219 41.585938 44.1875 41.683594 44.179688 41.789062 C 44.144531 42.0625 44.144531 42.0625 44.03125 42.398438 C 43.957031 42.398438 43.882812 42.398438 43.804688 42.398438 C 43.8125 42.496094 43.820312 42.597656 43.828125 42.703125 C 43.804688 43.097656 43.734375 43.226562 43.46875 43.511719 C 43.503906 43.324219 43.542969 43.140625 43.582031 42.953125 C 43.605469 42.84375 43.605469 42.84375 43.625 42.730469 C 43.757812 42.121094 43.933594 41.539062 44.144531 40.949219 Z M 44.144531 40.949219 "/>
<path style=" stroke:none;fill-rule:nonzero;fill:rgb(53.333336%,49.803922%,58.431375%);fill-opacity:1;" d="M 36.710938 30.933594 C 36.75 30.933594 36.785156 30.933594 36.824219 30.933594 C 36.851562 31.890625 36.789062 32.78125 36.597656 33.71875 C 36.5625 33.71875 36.523438 33.71875 36.488281 33.71875 C 36.445312 31.859375 36.445312 31.859375 36.710938 30.933594 Z M 36.710938 30.933594 "/>
<path style=" stroke:none;fill-rule:nonzero;fill:rgb(8.627451%,16.862746%,43.529412%);fill-opacity:1;" d="M 37.726562 23.925781 C 37.949219 24.148438 37.949219 24.148438 37.972656 24.386719 C 37.96875 24.480469 37.96875 24.570312 37.964844 24.660156 C 37.960938 24.753906 37.960938 24.84375 37.957031 24.9375 C 37.953125 25.042969 37.953125 25.042969 37.949219 25.148438 C 37.875 25.113281 37.800781 25.074219 37.726562 25.039062 C 37.652344 25.183594 37.578125 25.332031 37.5 25.484375 C 37.5 25.042969 37.5 24.601562 37.5 24.148438 C 37.574219 24.148438 37.648438 24.148438 37.726562 24.148438 C 37.726562 24.074219 37.726562 24 37.726562 23.925781 Z M 37.726562 23.925781 "/>
<path style=" stroke:none;fill-rule:nonzero;fill:rgb(40.392157%,54.509807%,76.862746%);fill-opacity:1;" d="M 28.265625 39.503906 C 28.339844 39.503906 28.414062 39.503906 28.492188 39.503906 C 28.433594 40.226562 28.324219 40.914062 28.152344 41.617188 C 28.003906 41.617188 27.855469 41.617188 27.703125 41.617188 C 27.703125 41.507812 27.703125 41.398438 27.703125 41.285156 C 27.8125 41.320312 27.925781 41.359375 28.039062 41.394531 C 28.039062 41.289062 28.035156 41.183594 28.035156 41.074219 C 28.039062 40.726562 28.039062 40.726562 28.152344 40.503906 C 28.179688 40.335938 28.199219 40.164062 28.214844 39.992188 C 28.226562 39.898438 28.234375 39.808594 28.246094 39.714844 C 28.25 39.644531 28.257812 39.574219 28.265625 39.503906 Z M 28.265625 39.503906 "/>
<path style=" stroke:none;fill-rule:nonzero;fill:rgb(41.176471%,38.82353%,52.549022%);fill-opacity:1;" d="M 36.9375 27.929688 C 36.972656 27.929688 37.011719 27.929688 37.050781 27.929688 C 37.085938 28.519531 37.125 29.105469 37.164062 29.710938 C 37.085938 29.710938 37.011719 29.710938 36.9375 29.710938 C 36.9375 29.894531 36.9375 30.078125 36.9375 30.269531 C 36.898438 30.269531 36.863281 30.269531 36.824219 30.269531 C 36.8125 29.476562 36.832031 28.714844 36.9375 27.929688 Z M 36.9375 27.929688 "/>
<path style=" stroke:none;fill-rule:nonzero;fill:rgb(47.843137%,58.431375%,78.431374%);fill-opacity:1;" d="M 48.933594 40.382812 C 49.054688 40.382812 49.175781 40.382812 49.300781 40.382812 C 49.425781 40.386719 49.554688 40.386719 49.683594 40.386719 C 49.875 40.386719 49.875 40.386719 50.070312 40.386719 C 50.382812 40.390625 50.699219 40.390625 51.011719 40.394531 C 51.011719 40.429688 51.011719 40.46875 51.011719 40.503906 C 50.898438 40.507812 50.898438 40.507812 50.785156 40.511719 C 50.441406 40.519531 50.097656 40.527344 49.753906 40.539062 C 49.636719 40.542969 49.515625 40.546875 49.394531 40.546875 C 49.277344 40.550781 49.164062 40.554688 49.046875 40.558594 C 48.9375 40.5625 48.832031 40.566406 48.726562 40.570312 C 48.375 40.625 48.152344 40.753906 47.859375 40.949219 C 47.894531 40.734375 47.894531 40.734375 47.972656 40.503906 C 48.324219 40.390625 48.566406 40.382812 48.933594 40.382812 Z M 48.933594 40.382812 "/>
<path style=" stroke:none;fill-rule:nonzero;fill:rgb(37.64706%,52.156866%,74.509805%);fill-opacity:1;" d="M 43.46875 38.390625 C 43.625 38.804688 43.535156 39.035156 43.371094 39.433594 C 43.199219 39.867188 43.070312 40.261719 43.019531 40.726562 C 42.980469 40.726562 42.945312 40.726562 42.90625 40.726562 C 42.90625 40.359375 42.90625 39.992188 42.90625 39.613281 C 42.980469 39.613281 43.054688 39.613281 43.128906 39.613281 C 43.125 39.515625 43.117188 39.417969 43.109375 39.316406 C 43.132812 38.910156 43.234375 38.71875 43.46875 38.390625 Z M 43.46875 38.390625 "/>
<path style=" stroke:none;fill-rule:nonzero;fill:rgb(57.254905%,54.901963%,64.313728%);fill-opacity:1;" d="M 32.65625 53.636719 C 32.695312 53.636719 32.730469 53.636719 32.769531 53.636719 C 32.90625 54.214844 32.921875 54.792969 32.953125 55.386719 C 32.992188 55.71875 33.046875 55.914062 33.222656 56.195312 C 33.070312 56.160156 32.921875 56.121094 32.769531 56.085938 C 32.734375 55.277344 32.695312 54.46875 32.65625 53.636719 Z M 32.65625 53.636719 "/>
<path style=" stroke:none;fill-rule:nonzero;fill:rgb(55.29412%,52.156866%,61.176473%);fill-opacity:1;" d="M 42.566406 46.292969 C 42.71875 46.777344 42.601562 47.167969 42.476562 47.648438 C 42.457031 47.730469 42.4375 47.8125 42.414062 47.894531 C 42.359375 48.105469 42.296875 48.3125 42.230469 48.515625 C 42.15625 48.554688 42.082031 48.589844 42.003906 48.628906 C 42.097656 48.128906 42.222656 47.640625 42.347656 47.148438 C 42.371094 47.066406 42.390625 46.980469 42.414062 46.898438 C 42.464844 46.695312 42.515625 46.492188 42.566406 46.292969 Z M 42.566406 46.292969 "/>
<path style=" stroke:none;fill-rule:nonzero;fill:rgb(20.784314%,41.568628%,68.235296%);fill-opacity:1;" d="M 32.65625 40.617188 C 32.695312 40.617188 32.730469 40.617188 32.769531 40.617188 C 33.03125 41.230469 33.023438 41.785156 33.007812 42.4375 C 33.007812 42.542969 33.007812 42.644531 33.007812 42.75 C 33.003906 43.003906 33 43.257812 32.996094 43.511719 C 32.957031 43.511719 32.921875 43.511719 32.882812 43.511719 C 32.875 43.386719 32.871094 43.261719 32.863281 43.132812 C 32.851562 42.96875 32.84375 42.804688 32.832031 42.640625 C 32.828125 42.558594 32.824219 42.476562 32.820312 42.390625 C 32.800781 42.039062 32.773438 41.734375 32.65625 41.394531 C 32.652344 41.136719 32.652344 40.875 32.65625 40.617188 Z M 32.65625 40.617188 "/>
<path style=" stroke:none;fill-rule:nonzero;fill:rgb(45.490196%,42.352942%,54.11765%);fill-opacity:1;" d="M 44.480469 39.726562 C 44.59375 39.761719 44.703125 39.800781 44.820312 39.835938 C 44.855469 40.058594 44.894531 40.277344 44.933594 40.503906 C 44.863281 40.539062 44.792969 40.570312 44.722656 40.601562 C 44.46875 40.722656 44.46875 40.722656 44.257812 40.949219 C 44.234375 40.480469 44.277344 40.152344 44.480469 39.726562 Z M 44.480469 39.726562 "/>
<path style=" stroke:none;fill-rule:nonzero;fill:rgb(29.411766%,29.411766%,47.843137%);fill-opacity:1;" d="M 25.113281 41.285156 C 25.148438 41.359375 25.1875 41.429688 25.226562 41.507812 C 25.152344 41.652344 25.078125 41.800781 25 41.953125 C 24.367188 41.953125 23.738281 41.953125 23.085938 41.953125 C 23.085938 41.914062 23.085938 41.878906 23.085938 41.839844 C 23.605469 41.839844 24.125 41.839844 24.664062 41.839844 C 24.664062 41.765625 24.664062 41.695312 24.664062 41.617188 C 24.886719 41.4375 24.886719 41.4375 25.113281 41.285156 Z M 25.113281 41.285156 "/>
<path style=" stroke:none;fill-rule:nonzero;fill:rgb(50.980395%,62.352943%,82.352942%);fill-opacity:1;" d="M 33.785156 48.070312 C 33.820312 48.070312 33.859375 48.070312 33.894531 48.070312 C 33.917969 49.480469 33.917969 49.480469 33.785156 50.074219 C 33.710938 50.039062 33.636719 50 33.558594 49.964844 C 33.53125 49.304688 33.636719 48.714844 33.785156 48.070312 Z M 33.785156 48.070312 "/>
<path style=" stroke:none;fill-rule:nonzero;fill:rgb(1.176471%,35.294119%,65.490198%);fill-opacity:1;" d="M 41.441406 43.621094 C 41.480469 43.621094 41.515625 43.621094 41.554688 43.621094 C 41.589844 44.0625 41.628906 44.503906 41.667969 44.957031 C 41.554688 44.992188 41.445312 45.03125 41.328125 45.066406 C 41.324219 44.847656 41.324219 44.628906 41.320312 44.40625 C 41.320312 44.285156 41.320312 44.160156 41.316406 44.035156 C 41.328125 43.730469 41.328125 43.730469 41.441406 43.621094 Z M 41.441406 43.621094 "/>
<path style=" stroke:none;fill-rule:nonzero;fill:rgb(32.941177%,49.019608%,72.941178%);fill-opacity:1;" d="M 29.390625 35.71875 C 29.429688 35.71875 29.464844 35.71875 29.503906 35.71875 C 29.457031 36.410156 29.324219 36.972656 29.054688 37.613281 C 29.015625 37.613281 28.980469 37.613281 28.941406 37.613281 C 28.917969 37.195312 28.980469 36.976562 29.167969 36.609375 C 29.207031 36.351562 29.246094 36.089844 29.277344 35.832031 C 29.316406 35.792969 29.355469 35.757812 29.390625 35.71875 Z M 29.390625 35.71875 "/>
<path style=" stroke:none;fill-rule:nonzero;fill:rgb(41.568628%,54.11765%,75.294119%);fill-opacity:1;" d="M 30.40625 32.828125 C 30.8125 32.828125 31.222656 32.828125 31.644531 32.828125 C 31.644531 32.9375 31.644531 33.046875 31.644531 33.160156 C 31.71875 33.160156 31.792969 33.160156 31.871094 33.160156 C 31.832031 33.308594 31.796875 33.453125 31.757812 33.605469 C 31.695312 33.515625 31.636719 33.421875 31.574219 33.328125 C 31.328125 33.015625 31.328125 33.015625 30.953125 33.007812 C 30.636719 33.03125 30.636719 33.03125 30.40625 33.160156 C 30.40625 33.050781 30.40625 32.941406 30.40625 32.828125 Z M 30.40625 32.828125 "/>
<path style=" stroke:none;fill-rule:nonzero;fill:rgb(49.019608%,47.450981%,59.215689%);fill-opacity:1;" d="M 43.355469 43.621094 C 43.527344 44.074219 43.425781 44.488281 43.355469 44.957031 C 43.246094 44.992188 43.132812 45.03125 43.019531 45.066406 C 43.09375 44.570312 43.210938 44.101562 43.355469 43.621094 Z M 43.355469 43.621094 "/>
<path style=" stroke:none;fill-rule:nonzero;fill:rgb(41.568628%,39.607844%,52.941179%);fill-opacity:1;" d="M 25.5625 40.617188 C 25.675781 40.617188 25.785156 40.617188 25.902344 40.617188 C 25.9375 40.761719 25.976562 40.910156 26.011719 41.0625 C 25.863281 41.023438 25.714844 40.988281 25.5625 40.949219 C 25.527344 41.058594 25.488281 41.171875 25.449219 41.285156 C 25.375 41.285156 25.300781 41.285156 25.226562 41.285156 C 25.4375 40.742188 25.4375 40.742188 25.5625 40.617188 Z M 25.5625 40.617188 "/>
<path style=" stroke:none;fill-rule:nonzero;fill:rgb(48.627451%,45.490196%,56.470591%);fill-opacity:1;" d="M 29.953125 39.058594 C 30.101562 39.535156 30.027344 39.90625 29.953125 40.394531 C 29.878906 40.394531 29.804688 40.394531 29.730469 40.394531 C 29.691406 40.46875 29.65625 40.539062 29.617188 40.617188 C 29.699219 40.085938 29.820312 39.578125 29.953125 39.058594 Z M 29.953125 39.058594 "/>
<path style=" stroke:none;fill-rule:nonzero;fill:rgb(49.411765%,47.843137%,58.823532%);fill-opacity:1;" d="M 45.382812 41.617188 C 45.847656 42.308594 45.847656 42.308594 45.792969 42.648438 C 45.769531 42.710938 45.746094 42.777344 45.722656 42.84375 C 45.550781 42.730469 45.550781 42.730469 45.382812 42.507812 C 45.351562 42.207031 45.367188 41.921875 45.382812 41.617188 Z M 45.382812 41.617188 "/>
<path style=" stroke:none;fill-rule:nonzero;fill:rgb(32.156864%,49.803922%,73.725492%);fill-opacity:1;" d="M 46.507812 40.949219 C 46.582031 40.949219 46.65625 40.949219 46.734375 40.949219 C 46.992188 41.332031 46.980469 41.503906 46.960938 41.953125 C 46.734375 41.839844 46.734375 41.839844 46.664062 41.636719 C 46.644531 41.554688 46.625 41.472656 46.609375 41.386719 C 46.589844 41.308594 46.570312 41.226562 46.550781 41.140625 C 46.535156 41.078125 46.523438 41.015625 46.507812 40.949219 Z M 46.507812 40.949219 "/>
<path style=" stroke:none;fill-rule:nonzero;fill:rgb(0.392157%,34.117648%,65.098041%);fill-opacity:1;" d="M 41.105469 41.730469 C 41.214844 41.765625 41.328125 41.804688 41.441406 41.839844 C 41.402344 42.097656 41.367188 42.355469 41.328125 42.621094 C 41.253906 42.582031 41.179688 42.546875 41.105469 42.507812 C 41.105469 42.25 41.105469 41.996094 41.105469 41.730469 Z M 41.105469 41.730469 "/>
</g>
</svg>
